<?xml version="1.0" encoding="UTF-8"?>
<svg width="237px" height="56px" viewBox="0 0 237 56" version="1.1" xmlns="http://www.w3.org/2000/svg" xmlns:xlink="http://www.w3.org/1999/xlink">
    <!-- Generator: Sketch 57.1 (83088) - https://sketch.com -->
    <title>Logo Dark</title>
    <desc>Created with Sketch.</desc>
    <g id="Söoryen-Site-2019---Official" stroke="none" stroke-width="1" fill="none" fill-rule="evenodd">
        <g id="Ecommerce-Solution-Page" transform="translate(-48.000000, -32.000000)">
            <g id="Header" transform="translate(48.000000, 32.000000)">
                <g id="Brand/Logo-Dark-Text">
                    <g id="logoblk">
                        <path d="M15.3783708,13.0247191 L10.3853933,17.7438202 C9.91938202,18.1842697 9.65308989,18.7505618 9.58651685,19.3168539 C9.58651685,19.3797753 9.58651685,19.4426966 9.58651685,19.505618 C9.58651685,20.1977528 9.91938202,20.8898876 10.4519663,21.3303371 C11.4505618,22.1483146 12.9817416,22.0224719 13.913764,21.141573 L19.0398876,16.2966292 C20.3047753,15.1011236 22.0356742,14.4089888 23.8331461,14.4089888 C25.5640449,14.4089888 27.1617978,15.0382022 28.4266854,16.1078652 C29.8247191,17.3662921 30.6235955,19.0022472 30.6235955,20.8269663 C30.6235955,22.5258427 29.8912921,24.1617978 28.6264045,25.3573034 L22.1688202,31.3977528 L22.1022472,31.4606742 C19.0398876,34.6067416 21.3033708,38.0674157 21.3033708,38.0674157 C21.9691011,38.0674157 22.5682584,37.8157303 23.0342697,37.3752809 L32.0882022,28.8808989 C34.3516854,26.741573 35.6831461,23.7842697 35.6831461,20.8269663 L35.6831461,20.8269663 L35.6831461,20.7011236 C35.6831461,17.7438202 34.4182584,14.9752809 32.2213483,12.8988764 C30.0244382,10.8224719 27.0952247,9.62696629 23.9662921,9.62696629 C20.8373596,9.62696629 17.6418539,10.8224719 15.3783708,13.0247191 Z M20.7042135,27.1820225 L25.697191,22.4629213 C26.1632022,22.0224719 26.4294944,21.4561798 26.4960674,20.8898876 C26.4960674,20.8269663 26.4960674,20.7640449 26.4960674,20.7011236 C26.4960674,20.0089888 26.1632022,19.3168539 25.630618,18.8764045 C24.6320225,18.058427 23.1008427,18.1842697 22.1688202,19.0651685 L17.0426966,23.9101124 C15.777809,25.105618 14.0469101,25.7977528 12.2494382,25.7977528 C10.5185393,25.7977528 8.92078652,25.1685393 7.65589888,24.0988764 C6.25786517,22.8404494 5.45898876,21.2044944 5.45898876,19.3797753 C5.45898876,17.6808989 6.19129213,16.0449438 7.45617978,14.8494382 L13.913764,8.80898876 L13.9803371,8.74606742 C17.1092697,5.66292135 14.8457865,2.20224719 14.8457865,2.20224719 C14.1800562,2.20224719 13.5808989,2.45393258 13.1148876,2.89438202 L3.92780899,11.3258427 C1.66432584,13.4651685 0.332865169,16.4224719 0.332865169,19.3797753 L0.332865169,19.3797753 L0.332865169,19.505618 C0.332865169,22.4629213 1.59775281,25.2314607 3.79466292,27.3078652 C5.99157303,29.3842697 8.92078652,30.5797753 12.0497191,30.5797753 C15.2452247,30.5797753 18.3741573,29.3842697 20.7042135,27.1820225 Z" id="Shape" fill="#FB5045" fill-rule="nonzero"></path>
                        <path d="M59.9157303,14.7235955 C59.9157303,17.3033708 57.5856742,19.0022472 54.0573034,19.0022472 C53.9907303,19.0022472 53.8575843,19.0022472 53.7910112,19.0022472 C53.5912921,19.0022472 53.325,19.0022472 53.1252809,18.9393258 C51.394382,18.7505618 49.7300562,18.058427 48.3985955,17.0516854 C48.2654494,16.9258427 48.1323034,16.8629213 47.9991573,16.7370787 L47.7994382,16.5483146 L48.7314607,14.7235955 L48.9311798,14.4089888 L49.330618,14.7235955 C49.463764,14.8494382 49.6634831,15.0382022 49.8632022,15.1640449 C50.9283708,15.9820225 52.2598315,16.4853933 53.4581461,16.611236 C53.6578652,16.611236 53.8575843,16.6741573 54.1238764,16.6741573 C56.0544944,16.6741573 57.252809,15.9820225 57.252809,14.8494382 C57.252809,13.4651685 55.9213483,13.0247191 53.7910112,12.3955056 C52.4595506,12.0179775 50.9283708,11.5775281 49.9297753,10.6966292 L49.9297753,10.6966292 C49.2640449,10.0674157 48.7980337,9.18651685 48.7980337,7.99101124 C48.7980337,6.66966292 49.463764,5.53707865 50.6620787,4.84494382 C50.8617978,4.71910112 51.1280899,4.59325843 51.327809,4.46741573 C52.1932584,4.08988764 53.1918539,3.9011236 54.3235955,3.9011236 C55.322191,3.9011236 56.3207865,4.08988764 57.319382,4.34157303 C57.319382,4.34157303 57.4525281,4.34157303 58.5842697,4.84494382 C59.25,5.09662921 59.4497191,5.66292135 59.1168539,6.35505618 L58.6508427,7.36179775 L58.5176966,7.61348315 C58.5176966,7.61348315 57.5856742,7.04719101 57.252809,6.92134831 C56.3207865,6.48089888 55.1890449,6.29213483 54.1904494,6.29213483 C52.7924157,6.29213483 51.327809,6.66966292 51.327809,7.80224719 C51.327809,8.30561798 51.5275281,8.68314607 51.9269663,8.99775281 C52.5261236,9.5011236 53.4581461,9.81573034 54.7896067,10.1932584 C54.8561798,10.1932584 54.9893258,10.2561798 55.1224719,10.2561798 C57.3859551,10.8853933 59.9823034,11.7662921 59.9157303,14.7235955 Z" id="Shape" fill="#273239" fill-rule="nonzero"></path>
                        <path d="M236.933427,34.3550562 C236.933427,36.9348315 234.603371,38.6337079 231.075,38.6337079 C231.008427,38.6337079 230.875281,38.6337079 230.808708,38.6337079 C230.608989,38.6337079 230.342697,38.6337079 230.142978,38.5707865 C228.412079,38.3820225 226.747753,37.6898876 225.416292,36.6831461 C225.283146,36.5573034 225.15,36.494382 225.016854,36.3685393 L224.817135,36.1797753 L225.749157,34.3550562 L225.948876,34.0404494 L226.348315,34.3550562 C226.481461,34.4808989 226.68118,34.6696629 226.880899,34.7955056 C227.946067,35.6134831 229.277528,36.1168539 230.475843,36.2426966 C230.675562,36.2426966 230.875281,36.305618 231.141573,36.305618 C233.072191,36.305618 234.270506,35.6134831 234.270506,34.4808989 C234.270506,33.0966292 232.939045,32.6561798 230.808708,32.0269663 C229.477247,31.6494382 227.946067,31.2089888 226.947472,30.3280899 L226.947472,30.3280899 C226.281742,29.6988764 225.81573,28.8179775 225.81573,27.6224719 C225.81573,26.3011236 226.481461,25.1685393 227.679775,24.4764045 C227.879494,24.3505618 228.145787,24.2247191 228.345506,24.0988764 C229.210955,23.7213483 230.209551,23.5325843 231.341292,23.5325843 C232.339888,23.5325843 233.338483,23.7213483 234.337079,23.9730337 C234.337079,23.9730337 234.470225,23.9730337 235.601966,24.4764045 C236.267697,24.7280899 236.467416,25.294382 236.134551,25.9865169 L235.668539,26.9932584 L235.535393,27.2449438 C235.535393,27.2449438 234.603371,26.6786517 234.270506,26.552809 C233.338483,26.1123596 232.206742,25.9235955 231.208146,25.9235955 C229.810112,25.9235955 228.345506,26.3011236 228.345506,27.4337079 C228.345506,27.9370787 228.545225,28.3146067 228.944663,28.6292135 C229.54382,29.1325843 230.475843,29.447191 231.807303,29.8247191 C231.873876,29.8247191 232.007022,29.8876404 232.140169,29.8876404 C234.403652,30.5797753 236.933427,31.3977528 236.933427,34.3550562 Z" id="Shape" fill="#273239" fill-rule="nonzero"></path>
                        <path d="M91.0719101,3.71235955 C86.2786517,3.71235955 82.6171348,7.11011236 82.6171348,11.388764 C82.6171348,15.7303371 86.3452247,19.1280899 91.0719101,19.1280899 C95.7985955,19.1280899 99.5266854,15.7303371 99.5266854,11.388764 C99.5266854,7.11011236 95.8651685,3.71235955 91.0719101,3.71235955 Z M91.1384831,16.988764 C87.8098315,16.988764 85.0803371,14.4719101 85.0803371,11.4516854 C85.0803371,8.36853933 87.8098315,5.91460674 91.1384831,5.91460674 C94.4671348,5.91460674 97.1966292,8.36853933 97.1966292,11.4516854 C97.1300562,14.4719101 94.4671348,16.988764 91.1384831,16.988764 Z" id="Shape" fill="#273239" fill-rule="nonzero"></path>
                        <path d="M139.936517,23.3438202 C135.143258,23.3438202 131.481742,26.741573 131.481742,31.0202247 C131.481742,35.3617978 135.209831,38.7595506 139.936517,38.7595506 C144.663202,38.7595506 148.391292,35.3617978 148.391292,31.0202247 C148.324719,26.741573 144.663202,23.3438202 139.936517,23.3438202 Z M139.936517,36.6202247 C136.607865,36.6202247 133.878371,34.1033708 133.878371,31.0831461 C133.878371,28 136.607865,25.5460674 139.936517,25.5460674 C143.265169,25.5460674 145.994663,28 145.994663,31.0831461 C145.92809,34.1033708 143.265169,36.6202247 139.936517,36.6202247 Z" id="Shape" fill="#273239" fill-rule="nonzero"></path>
                        <path d="M171.758427,23.3438202 C166.965169,23.3438202 163.303652,26.741573 163.303652,31.0202247 C163.303652,35.3617978 167.031742,38.7595506 171.758427,38.7595506 C176.485112,38.7595506 180.213202,35.3617978 180.213202,31.0202247 C180.146629,26.741573 176.485112,23.3438202 171.758427,23.3438202 Z M171.758427,36.6202247 C168.429775,36.6202247 165.700281,34.1033708 165.700281,31.0831461 C165.700281,28 168.429775,25.5460674 171.758427,25.5460674 C175.087079,25.5460674 177.816573,28 177.816573,31.0831461 C177.75,34.1033708 175.087079,36.6202247 171.758427,36.6202247 Z" id="Shape" fill="#273239" fill-rule="nonzero"></path>
                        <g id="Group" transform="translate(62.578652, 0.000000)" fill="#273239" fill-rule="nonzero">
                            <path d="M8.72106742,3.71235955 C3.92780899,3.71235955 0.266292135,7.11011236 0.266292135,11.388764 C0.266292135,15.7303371 3.99438202,19.1280899 8.72106742,19.1280899 C13.4477528,19.1280899 17.1758427,15.7303371 17.1758427,11.388764 C17.1092697,7.11011236 13.4477528,3.71235955 8.72106742,3.71235955 Z M8.72106742,16.988764 C5.39241573,16.988764 2.66292135,14.4719101 2.66292135,11.4516854 C2.66292135,8.36853933 5.39241573,5.91460674 8.72106742,5.91460674 C12.0497191,5.91460674 14.7792135,8.36853933 14.7792135,11.4516854 C14.7126404,14.4719101 12.0497191,16.988764 8.72106742,16.988764 Z" id="Shape"></path>
                            <g transform="translate(3.994382, 0.000000)" id="Shape">
                                <path d="M1.79747191,2.83146067 C2.59634831,2.83146067 3.19550562,2.26516854 3.19550562,1.44719101 C3.19550562,0.692134831 2.59634831,0.125842697 1.79747191,0.125842697 C0.998595506,0.125842697 0.399438202,0.692134831 0.399438202,1.44719101 C0.466011236,2.20224719 0.998595506,2.83146067 1.79747191,2.83146067 Z"></path>
                                <path d="M7.45617978,2.83146067 C8.25505618,2.83146067 8.85421348,2.26516854 8.85421348,1.44719101 C8.85421348,0.692134831 8.25505618,0.125842697 7.45617978,0.125842697 C6.65730337,0.125842697 6.05814607,0.692134831 6.05814607,1.44719101 C6.1247191,2.20224719 6.7238764,2.83146067 7.45617978,2.83146067 Z"></path>
                            </g>
                        </g>
                        <path d="M112.375281,13.7797753 C114.372472,13.0247191 115.43764,11.388764 115.43764,9.12359551 C115.43764,6.04044944 113.174157,4.15280899 109.312921,4.15280899 L103.387921,4.15280899 L103.387921,18.6247191 L105.784551,18.6247191 L105.784551,14.2831461 L109.312921,14.2831461 C109.579213,14.2831461 109.845506,14.2831461 110.111798,14.2831461 L113.107584,18.6247191 L115.903652,18.6247191 L112.375281,13.7797753 Z M105.851124,6.41797753 L109.379494,6.41797753 C111.90927,6.41797753 113.174157,7.36179775 113.174157,9.18651685 C113.174157,11.0741573 111.90927,12.0808989 109.379494,12.0808989 L105.851124,12.0808989 L105.851124,6.41797753 Z" id="Shape" fill="#273239" fill-rule="nonzero"></path>
                        <polygon id="Shape" fill="#273239" fill-rule="nonzero" points="125.09073 11.011236 120.563764 4.21573034 118.033989 4.21573034 123.892416 13.7168539 123.892416 18.6247191 126.289045 18.6247191 126.289045 13.6539326 132.080899 4.21573034 129.551124 4.21573034"></polygon>
                        <path d="M145.26236,16.4224719 L137.872753,16.4224719 L137.872753,12.3955056 L145.195787,12.3955056 L145.195787,10.1932584 L137.872753,10.1932584 L137.872753,6.35505618 L146.061236,6.35505618 L146.061236,5.15955056 C146.061236,4.59325843 145.595225,4.08988764 144.929494,4.08988764 L135.409551,4.08988764 L135.409551,18.5617978 L146.260955,18.5617978 L146.260955,17.4292135 C146.327528,16.9258427 145.861517,16.4224719 145.26236,16.4224719 Z" id="Shape" fill="#273239" fill-rule="nonzero"></path>
                        <path d="M161.439607,14.5348315 L154.05,5.15955056 C153.583989,4.53033708 152.851685,4.21573034 152.052809,4.21573034 L151.054213,4.21573034 L151.054213,18.6876404 L153.450843,18.6876404 L153.450843,8.36853933 L161.639326,18.6876404 L163.902809,18.6876404 L163.902809,5.28539326 C163.902809,4.71910112 163.436798,4.21573034 162.771067,4.21573034 L161.50618,4.21573034 L161.50618,14.5348315 L161.439607,14.5348315 L161.439607,14.5348315 Z" id="Shape" fill="#273239" fill-rule="nonzero"></path>
                        <path d="M47.7328652,26.0494382 L52.4595506,26.0494382 L52.4595506,38.2561798 L54.8561798,38.2561798 L54.8561798,26.0494382 L59.5828652,26.0494382 L59.5828652,24.8539326 C59.5828652,24.2876404 59.1168539,23.7842697 58.4511236,23.7842697 L47.7328652,23.7842697 L47.7328652,26.0494382 Z" id="Shape" fill="#273239" fill-rule="nonzero"></path>
                        <path d="M65.9738764,32.0898876 L73.2969101,32.0898876 L73.2969101,29.8876404 L65.9738764,29.8876404 L65.9738764,26.0494382 L74.1623596,26.0494382 L74.1623596,24.8539326 C74.1623596,24.2876404 73.6963483,23.7842697 73.030618,23.7842697 L63.5772472,23.7842697 L63.5772472,38.2561798 L74.4286517,38.2561798 L74.4286517,37.1235955 C74.4286517,36.5573034 73.9626404,36.0539326 73.2969101,36.0539326 L65.9738764,36.0539326 L65.9738764,32.0898876 L65.9738764,32.0898876 Z" id="Shape" fill="#273239" fill-rule="nonzero"></path>
                        <path d="M90.0067416,34.6696629 C88.875,35.6764045 87.3438202,36.305618 85.8126404,36.305618 C82.6171348,36.305618 80.0873596,33.9775281 80.0873596,31.0202247 C80.0873596,28.0629213 82.6171348,25.7348315 85.8126404,25.7348315 C87.3438202,25.7348315 88.875,26.3640449 90.0067416,27.4337079 L90.3396067,27.7483146 L91.8707865,25.9235955 L91.6044944,25.6719101 C90.0733146,24.2876404 87.9429775,23.4696629 85.8126404,23.4696629 C81.2191011,23.4696629 77.5575843,26.741573 77.5575843,30.9573034 C77.5575843,35.2359551 81.1525281,38.5707865 85.7460674,38.5707865 C87.8098315,38.5707865 89.9401685,37.752809 91.6044944,36.2426966 L91.8707865,35.9910112 L90.2730337,34.3550562 L90.0067416,34.6696629 Z" id="Shape" fill="#273239" fill-rule="nonzero"></path>
                        <path d="M106.516854,30.0764045 L98.4615169,30.0764045 L98.4615169,24.9168539 C98.4615169,24.3505618 97.9955056,23.847191 97.3297753,23.847191 L95.9983146,23.847191 L95.9983146,38.3191011 L98.3949438,38.3191011 L98.3949438,32.2786517 L106.516854,32.2786517 L106.516854,38.3191011 L108.913483,38.3191011 L108.913483,24.9168539 C108.913483,24.3505618 108.447472,23.847191 107.781742,23.847191 L106.450281,23.847191 L106.516854,30.0764045 L106.516854,30.0764045 Z" id="Shape" fill="#273239" fill-rule="nonzero"></path>
                        <path d="M124.824438,34.2292135 L117.434831,24.8539326 C116.96882,24.2247191 116.236517,23.9101124 115.43764,23.9101124 L114.439045,23.9101124 L114.439045,38.3820225 L116.835674,38.3820225 L116.835674,28.0629213 L125.024157,38.3820225 L127.28764,38.3820225 L127.28764,24.9797753 C127.28764,24.4134831 126.821629,23.9101124 126.155899,23.9101124 L124.891011,23.9101124 L124.891011,34.2292135 L124.824438,34.2292135 Z" id="Shape" fill="#273239" fill-rule="nonzero"></path>
                        <path d="M153.783708,23.847191 L152.452247,23.847191 L152.452247,38.3191011 L161.239888,38.3191011 L161.239888,36.1168539 L154.848876,36.1168539 L154.848876,24.9168539 C154.915449,24.2876404 154.449438,23.847191 153.783708,23.847191 Z" id="Shape" fill="#273239" fill-rule="nonzero"></path>
                        <path d="M191.597191,25.7977528 C193.128371,25.7977528 194.726124,26.3640449 195.857865,27.3707865 L196.19073,27.6224719 L197.655337,25.8606742 L197.389045,25.6089888 C195.857865,24.2876404 193.727528,23.5955056 191.597191,23.5955056 C186.937079,23.5955056 183.342135,26.8674157 183.342135,31.0831461 C183.342135,35.2988764 186.937079,38.6337079 191.530618,38.6337079 C193.527809,38.6337079 195.724719,37.8786517 197.322472,36.6831461 L197.455618,36.5573034 L197.455618,31.2719101 L197.455618,30.894382 L190.864888,30.894382 L190.864888,33.0337079 L195.192135,33.0337079 L195.192135,35.2988764 C194.126966,35.9280899 192.795506,36.305618 191.663764,36.305618 C188.468258,36.305618 185.87191,33.9146067 185.87191,31.0202247 C185.805337,28.188764 188.401685,25.7977528 191.597191,25.7977528 Z" id="Shape" fill="#273239" fill-rule="nonzero"></path>
                        <path d="M202.848034,38.3191011 L205.244663,38.3191011 L205.244663,24.9168539 C205.244663,24.3505618 204.778652,23.847191 204.112921,23.847191 L202.781461,23.847191 L202.781461,38.3191011 L202.848034,38.3191011 Z" id="Shape" fill="#273239" fill-rule="nonzero"></path>
                        <path d="M212.567697,32.0898876 L219.89073,32.0898876 L219.89073,29.8876404 L212.567697,29.8876404 L212.567697,26.0494382 L220.75618,26.0494382 L220.75618,24.8539326 C220.75618,24.2876404 220.290169,23.7842697 219.624438,23.7842697 L210.104494,23.7842697 L210.104494,38.2561798 L220.955899,38.2561798 L220.955899,37.1235955 C220.955899,36.5573034 220.489888,36.0539326 219.824157,36.0539326 L212.434551,36.0539326 L212.434551,32.0898876 L212.567697,32.0898876 Z" id="Shape" fill="#273239" fill-rule="nonzero"></path>
                        <g id="Group" transform="translate(48.598315, 43.415730)" fill="#495F6C" fill-rule="nonzero">
                            <path d="M5.59213483,8.62022472 C5.05955056,9.3752809 4.12752809,9.68988764 2.99578652,9.68988764 C1.53117978,9.68988764 0.599157303,8.80898876 0.599157303,7.61348315 C0.599157303,6.41797753 1.59775281,5.7258427 3.26207865,5.66292135 L5.59213483,5.66292135 L5.59213483,5.28539326 C5.59213483,4.27865169 4.92640449,3.71235955 3.66151685,3.71235955 C2.86264045,3.71235955 2.13033708,3.96404494 1.39803371,4.46741573 L0.932022472,3.71235955 C1.86404494,3.14606742 2.59634831,2.83146067 3.79466292,2.83146067 C5.5255618,2.83146067 6.5241573,3.71235955 6.5241573,5.15955056 L6.5241573,9.56404494 L5.5255618,9.56404494 L5.5255618,8.62022472 L5.59213483,8.62022472 L5.59213483,8.62022472 Z M5.59213483,7.36179775 L5.59213483,6.54382022 L3.39522472,6.54382022 C2.19691011,6.54382022 1.59775281,6.85842697 1.59775281,7.61348315 C1.59775281,8.36853933 2.26348315,8.80898876 3.19550562,8.80898876 C4.39382022,8.87191011 5.3258427,8.30561798 5.59213483,7.36179775 Z" id="Shape"></path>
                            <path d="M17.1092697,5.53707865 L17.1092697,9.68988764 L16.0441011,9.68988764 L16.0441011,5.78876404 C16.0441011,4.59325843 15.3117978,3.9011236 14.0469101,3.9011236 C12.6488764,3.9011236 11.783427,4.78202247 11.6502809,6.04044944 L11.6502809,9.62696629 L10.5851124,9.62696629 L10.5851124,2.89438202 L11.6502809,2.89438202 L11.6502809,4.34157303 C12.1162921,3.33483146 13.1148876,2.83146067 14.3797753,2.83146067 C16.1106742,2.89438202 17.1092697,3.9011236 17.1092697,5.53707865 Z" id="Shape"></path>
                            <path d="M27.561236,1.06966292 C27.561236,1.44719101 27.2949438,1.76179775 26.8955056,1.76179775 C26.4960674,1.76179775 26.2297753,1.44719101 26.2297753,1.06966292 C26.2297753,0.692134831 26.4960674,0.37752809 26.8955056,0.37752809 C27.2283708,0.37752809 27.561236,0.629213483 27.561236,1.06966292 Z M26.3629213,9.68988764 L26.3629213,2.95730337 L27.4280899,2.95730337 L27.4280899,9.68988764 L26.3629213,9.68988764 Z" id="Shape"></path>
                            <path d="M38.0797753,5.53707865 L38.0797753,9.68988764 L37.0146067,9.68988764 L37.0146067,5.78876404 C37.0146067,4.59325843 36.2823034,3.9011236 35.0174157,3.9011236 C33.619382,3.9011236 32.7539326,4.78202247 32.6207865,6.04044944 L32.6207865,9.62696629 L31.555618,9.62696629 L31.555618,2.89438202 L32.6207865,2.89438202 L32.6207865,4.34157303 C33.0867978,3.33483146 34.0853933,2.83146067 35.3502809,2.83146067 C37.0811798,2.89438202 38.0797753,3.9011236 38.0797753,5.53707865 Z" id="Shape"></path>
                            <path d="M48.5317416,9.68988764 L47.466573,9.68988764 L47.466573,8.24269663 C46.9339888,9.18651685 46.0019663,9.75280899 44.7370787,9.75280899 C42.7398876,9.75280899 41.3418539,8.36853933 41.3418539,6.35505618 C41.3418539,4.34157303 42.7398876,2.95730337 44.7370787,2.95730337 C46.0019663,2.95730337 47.0005618,3.52359551 47.5331461,4.46741573 L47.5331461,0.251685393 L48.5983146,0.251685393 L48.5983146,9.68988764 L48.5317416,9.68988764 Z M47.466573,6.35505618 C47.466573,4.90786517 46.4014045,3.83820225 44.9367978,3.83820225 C43.405618,3.83820225 42.3404494,4.90786517 42.3404494,6.35505618 C42.3404494,7.80224719 43.405618,8.87191011 44.9367978,8.87191011 C46.4014045,8.80898876 47.466573,7.80224719 47.466573,6.35505618 Z" id="Shape"></path>
                            <path d="M58.9171348,6.73258427 L53.1252809,6.73258427 C53.325,8.05393258 54.3235955,8.87191011 55.7216292,8.87191011 C56.5870787,8.87191011 57.3859551,8.55730337 57.9185393,8.05393258 L58.5176966,8.62022472 C57.8519663,9.31235955 56.8533708,9.75280899 55.6550562,9.75280899 C53.5912921,9.75280899 52.1266854,8.36853933 52.1266854,6.35505618 C52.1266854,4.34157303 53.5912921,2.95730337 55.6550562,2.95730337 C57.8519663,2.89438202 58.9837079,4.40449438 58.9171348,6.73258427 Z M57.9851124,5.91460674 C57.9185393,4.65617978 56.9865169,3.83820225 55.5884831,3.83820225 C54.2570225,3.83820225 53.258427,4.65617978 53.1252809,5.91460674 L57.9851124,5.91460674 Z" id="Shape"></path>
                            <path d="M67.8379213,3.9011236 L67.238764,4.59325843 C66.7061798,4.08988764 65.9738764,3.83820225 65.108427,3.83820225 C63.6438202,3.83820225 62.5786517,4.84494382 62.5786517,6.29213483 C62.5786517,7.73932584 63.6438202,8.74606742 65.108427,8.74606742 C66.0404494,8.74606742 66.7727528,8.43146067 67.3053371,7.86516854 L67.9044944,8.49438202 C67.238764,9.2494382 66.3067416,9.62696629 65.0418539,9.62696629 C62.9780899,9.62696629 61.5134831,8.24269663 61.5134831,6.22921348 C61.5134831,4.21573034 62.9780899,2.83146067 65.0418539,2.83146067 C66.2401685,2.89438202 67.238764,3.27191011 67.8379213,3.9011236 Z" id="Shape"></path>
                            <path d="M77.6241573,6.29213483 C77.6241573,8.30561798 76.1595506,9.68988764 74.0292135,9.68988764 C71.8988764,9.68988764 70.4342697,8.30561798 70.4342697,6.29213483 C70.4342697,4.27865169 71.8988764,2.89438202 74.0292135,2.89438202 C76.1595506,2.89438202 77.6241573,4.34157303 77.6241573,6.29213483 Z M71.4994382,6.29213483 C71.4994382,7.73932584 72.5646067,8.80898876 74.0292135,8.80898876 C75.4938202,8.80898876 76.5589888,7.80224719 76.5589888,6.29213483 C76.5589888,4.84494382 75.4938202,3.83820225 74.0292135,3.83820225 C72.5646067,3.83820225 71.4994382,4.84494382 71.4994382,6.29213483 Z" id="Shape"></path>
                            <path d="M92.802809,5.53707865 L92.802809,9.68988764 L91.7376404,9.68988764 L91.7376404,5.78876404 C91.7376404,4.59325843 91.0053371,3.9011236 89.7404494,3.9011236 C88.2758427,3.96404494 87.4103933,4.90786517 87.4103933,6.35505618 L87.4103933,9.62696629 L86.3452247,9.62696629 L86.3452247,5.7258427 C86.3452247,4.53033708 85.6129213,3.83820225 84.3480337,3.83820225 C82.883427,3.9011236 82.0179775,4.84494382 82.0179775,6.29213483 L82.0179775,9.56404494 L80.952809,9.56404494 L80.952809,2.83146067 L82.0179775,2.83146067 L82.0179775,4.34157303 C82.4839888,3.27191011 83.4160112,2.83146067 84.7474719,2.76853933 C86.0789326,2.76853933 87.0109551,3.39775281 87.2772472,4.53033708 C87.7432584,3.33483146 88.7418539,2.76853933 90.0733146,2.76853933 C91.8707865,2.89438202 92.802809,3.9011236 92.802809,5.53707865 Z" id="Shape"></path>
                            <path d="M108.514045,5.53707865 L108.514045,9.68988764 L107.448876,9.68988764 L107.448876,5.78876404 C107.448876,4.59325843 106.716573,3.9011236 105.451685,3.9011236 C103.987079,3.96404494 103.121629,4.90786517 103.121629,6.35505618 L103.121629,9.62696629 L102.056461,9.62696629 L102.056461,5.7258427 C102.056461,4.53033708 101.324157,3.83820225 100.05927,3.83820225 C98.5946629,3.9011236 97.7292135,4.84494382 97.7292135,6.29213483 L97.7292135,9.56404494 L96.6640449,9.56404494 L96.6640449,2.83146067 L97.7292135,2.83146067 L97.7292135,4.34157303 C98.1952247,3.27191011 99.1272472,2.83146067 100.458708,2.76853933 C101.790169,2.76853933 102.722191,3.39775281 102.988483,4.53033708 C103.454494,3.33483146 104.45309,2.76853933 105.784551,2.76853933 C107.515449,2.89438202 108.514045,3.9011236 108.514045,5.53707865 Z" id="Shape"></path>
                            <path d="M123.293258,3.9011236 L122.694101,4.59325843 C122.161517,4.08988764 121.429213,3.83820225 120.563764,3.83820225 C119.099157,3.83820225 118.033989,4.84494382 118.033989,6.29213483 C118.033989,7.73932584 119.099157,8.74606742 120.563764,8.74606742 C121.495787,8.74606742 122.22809,8.43146067 122.760674,7.86516854 L123.359831,8.49438202 C122.694101,9.2494382 121.762079,9.62696629 120.497191,9.62696629 C118.433427,9.62696629 116.96882,8.24269663 116.96882,6.22921348 C116.96882,4.21573034 118.433427,2.83146067 120.497191,2.83146067 C121.695506,2.89438202 122.627528,3.27191011 123.293258,3.9011236 Z" id="Shape"></path>
                            <path d="M133.079494,6.29213483 C133.079494,8.30561798 131.614888,9.68988764 129.484551,9.68988764 C127.354213,9.68988764 125.889607,8.30561798 125.889607,6.29213483 C125.889607,4.27865169 127.354213,2.89438202 129.484551,2.89438202 C131.614888,2.89438202 133.079494,4.34157303 133.079494,6.29213483 Z M126.954775,6.29213483 C126.954775,7.73932584 128.019944,8.80898876 129.484551,8.80898876 C130.949157,8.80898876 132.014326,7.80224719 132.014326,6.29213483 C132.014326,4.84494382 130.949157,3.83820225 129.484551,3.83820225 C128.019944,3.83820225 126.954775,4.84494382 126.954775,6.29213483 Z" id="Shape"></path>
                            <path d="M148.258146,5.53707865 L148.258146,9.68988764 L147.192978,9.68988764 L147.192978,5.78876404 C147.192978,4.59325843 146.460674,3.9011236 145.195787,3.9011236 C143.73118,3.96404494 142.86573,4.90786517 142.86573,6.35505618 L142.86573,9.62696629 L141.800562,9.62696629 L141.800562,5.7258427 C141.800562,4.53033708 141.068258,3.83820225 139.803371,3.83820225 C138.338764,3.9011236 137.473315,4.84494382 137.473315,6.29213483 L137.473315,9.56404494 L136.408146,9.56404494 L136.408146,2.83146067 L137.473315,2.83146067 L137.473315,4.34157303 C137.939326,3.27191011 138.871348,2.83146067 140.202809,2.76853933 C141.53427,2.76853933 142.466292,3.39775281 142.732584,4.53033708 C143.198596,3.33483146 144.197191,2.76853933 145.528652,2.76853933 C147.326124,2.89438202 148.258146,3.9011236 148.258146,5.53707865 Z" id="Shape"></path>
                            <path d="M159.508989,6.35505618 C159.508989,8.36853933 158.110955,9.75280899 156.113764,9.75280899 C154.848876,9.75280899 153.850281,9.18651685 153.38427,8.30561798 L153.38427,12.2067416 L152.319101,12.2067416 L152.319101,3.02022472 L153.38427,3.02022472 L153.38427,4.46741573 C153.916854,3.52359551 154.848876,2.95730337 156.113764,2.95730337 C158.110955,2.89438202 159.508989,4.34157303 159.508989,6.35505618 Z M158.44382,6.29213483 C158.44382,4.84494382 157.378652,3.7752809 155.914045,3.7752809 C154.449438,3.7752809 153.38427,4.84494382 153.38427,6.29213483 C153.38427,7.73932584 154.449438,8.80898876 155.914045,8.80898876 C157.378652,8.80898876 158.44382,7.73932584 158.44382,6.29213483 Z" id="Shape"></path>
                            <path d="M167.364607,8.62022472 C166.832022,9.3752809 165.9,9.68988764 164.768258,9.68988764 C163.303652,9.68988764 162.371629,8.80898876 162.371629,7.61348315 C162.371629,6.41797753 163.370225,5.7258427 165.034551,5.66292135 L167.364607,5.66292135 L167.364607,5.28539326 C167.364607,4.27865169 166.698876,3.71235955 165.433989,3.71235955 C164.635112,3.71235955 163.902809,3.96404494 163.170506,4.46741573 L162.704494,3.71235955 C163.636517,3.14606742 164.36882,2.83146067 165.567135,2.83146067 C167.298034,2.83146067 168.296629,3.71235955 168.296629,5.15955056 L168.296629,9.56404494 L167.298034,9.56404494 L167.298034,8.62022472 L167.364607,8.62022472 L167.364607,8.62022472 Z M167.364607,7.36179775 L167.364607,6.54382022 L165.167697,6.54382022 C163.969382,6.54382022 163.370225,6.85842697 163.370225,7.61348315 C163.370225,8.36853933 164.035955,8.80898876 164.967978,8.80898876 C166.166292,8.87191011 167.098315,8.30561798 167.364607,7.36179775 Z" id="Shape"></path>
                            <path d="M178.815169,5.53707865 L178.815169,9.68988764 L177.75,9.68988764 L177.75,5.78876404 C177.75,4.59325843 177.017697,3.9011236 175.752809,3.9011236 C174.354775,3.9011236 173.489326,4.78202247 173.35618,6.04044944 L173.35618,9.62696629 L172.291011,9.62696629 L172.291011,2.89438202 L173.35618,2.89438202 L173.35618,4.34157303 C173.822191,3.33483146 174.820787,2.83146067 176.085674,2.83146067 C177.816573,2.89438202 178.815169,3.9011236 178.815169,5.53707865 Z" id="Shape"></path>
                            <path d="M184.740169,10.6337079 C184.274157,11.6404494 183.541854,12.2067416 182.609831,12.2067416 C182.010674,12.2067416 181.544663,12.0179775 181.145225,11.7033708 L181.611236,10.8853933 C181.944101,11.0741573 182.276966,11.2 182.609831,11.2 C183.142416,11.2 183.608427,10.8853933 183.874719,10.2561798 L184.141011,9.62696629 L181.211798,2.95730337 L182.343539,2.95730337 L184.673596,8.49438202 L186.937079,2.95730337 L188.002247,2.95730337 L184.740169,10.6337079 Z" id="Shape"></path>
                        </g>
                    </g>
                </g>
            </g>
        </g>
    </g>
</svg>